<svg width="53" height="53" viewBox="0 0 53 53" fill="none" xmlns="http://www.w3.org/2000/svg">
<path d="M28.7083 41.9362C28.536 44.202 28.1054 45.6816 27.0366 46.7659C25.25 48.5833 22.3748 48.5833 16.6199 48.5833C10.865 48.5833 7.99192 48.5833 6.20317 46.7659C4.41663 44.9506 4.41663 42.0268 4.41663 36.1791V25.546C4.41663 19.6983 4.41663 16.7745 6.20538 14.957C7.28967 13.8529 8.78029 13.42 11.0725 13.25M16.5448 41.9583H16.5647" stroke="white" stroke-width="3" stroke-linecap="round" stroke-linejoin="round"/>
<path d="M35.5056 4.4165H30.7444C24.3358 4.4165 21.1337 4.4165 19.2346 6.41063C17.3332 8.40696 17.5341 11.556 17.9316 17.8586L18.2099 22.2422C18.3026 23.6886 18.3468 24.413 18.5102 25.018C18.8251 26.1671 19.4553 27.2051 20.3295 28.0145C21.2037 28.824 22.287 29.3725 23.4569 29.5981C24.0796 29.7218 24.815 29.7218 26.288 29.7218C28.3395 29.7218 28.3108 31.4156 28.3108 33.0917C28.3108 34.3946 28.3108 35.0439 28.7348 35.2669C29.1588 35.49 29.7065 35.13 30.8062 34.4079L37.3429 30.1149C37.7281 29.8477 38.1882 29.71 38.6568 29.7218C41.3554 29.7218 42.7047 29.7218 43.7978 29.3155C47.5873 27.9088 47.9031 24.4085 48.1218 20.9569L48.3183 17.8586C48.7158 11.556 48.9168 8.40696 47.0154 6.41063C45.1162 4.4165 41.9141 4.4165 35.5056 4.4165Z" stroke="white" stroke-width="3" stroke-linecap="round" stroke-linejoin="round"/>
<path d="M38.8003 23.1872L37.4201 20.4268M37.4201 20.4268L33.1249 12.1455L29.1389 20.4268L27.7587 23.1872M37.4201 20.4268H29.1411" stroke="white" stroke-width="3" stroke-linecap="round" stroke-linejoin="round"/>
</svg>
