<svg width="53" height="53" viewBox="0 0 53 53" fill="none" xmlns="http://www.w3.org/2000/svg">
<path d="M23.6093 10.0745C25.4639 8.2205 27.8126 6.93907 30.3754 6.38306C32.9381 5.82705 35.6067 6.01992 38.0629 6.93868C38.8976 7.25005 39.0566 8.30784 38.4272 8.93943L32.2726 15.0941C32.0598 15.3067 31.891 15.5592 31.7758 15.8372C31.6606 16.1151 31.6014 16.413 31.6014 16.7139C31.6014 17.0147 31.6606 17.3126 31.7758 17.5906C31.891 17.8685 32.0598 18.121 32.2726 18.3337L34.6664 20.7275C34.8791 20.9403 35.1316 21.1091 35.4096 21.2243C35.6875 21.3395 35.9854 21.3988 36.2862 21.3988C36.5871 21.3988 36.885 21.3395 37.1629 21.2243C37.4409 21.1091 37.6934 20.9403 37.9061 20.7275L44.0629 14.5751C44.6923 13.9457 45.7501 14.1069 46.0614 14.9395C46.9629 17.3454 47.1676 19.9569 46.6522 22.4739C46.1368 24.991 44.9221 27.3118 43.1476 29.1698C41.373 31.0278 39.1105 32.3478 36.6198 32.9783C34.129 33.6088 31.5109 33.5242 29.0661 32.7342C28.1916 32.4515 27.2111 32.615 26.5619 33.2642L14.3122 45.5138C13.8694 45.9849 13.3365 46.3621 12.7451 46.6233C12.1537 46.8844 11.5159 47.0241 10.8695 47.0341C10.2231 47.0441 9.5813 46.9241 8.98215 46.6813C8.38299 46.4385 7.8387 46.0779 7.38157 45.6208C6.92444 45.1636 6.56379 44.6193 6.321 44.0202C6.07822 43.421 5.95825 42.7792 5.96823 42.1328C5.9782 41.4864 6.1179 40.8486 6.37905 40.2572C6.6402 39.6658 7.01747 39.1329 7.48848 38.6901L19.7381 26.4383C20.3874 25.789 20.5508 24.8085 20.2681 23.934C19.496 21.5401 19.3993 18.9795 19.9888 16.5342C20.5783 14.0889 21.8311 11.8536 23.6093 10.0745Z" stroke="white" stroke-width="3" stroke-linejoin="round"/>
</svg>
