<svg width="52" height="52" viewBox="0 0 52 52" fill="none" xmlns="http://www.w3.org/2000/svg">
<path d="M8.66663 28.1668C9.37079 33.6528 12.7421 38.5257 17.3333 41.1668M43.3333 23.8335C42.8034 20.0207 41.0346 16.4878 38.2993 13.7791C35.5641 11.0704 32.0141 9.33617 28.1962 8.84354C24.3784 8.35092 20.5045 9.12722 17.1712 11.0529C13.838 12.9785 11.2303 15.9467 9.74996 19.5002" stroke="white" stroke-width="3" stroke-linecap="round" stroke-linejoin="round"/>
<path d="M8.66663 10.8335V19.5002H17.3333M26 32.5002H30.3333C30.9079 32.5002 31.459 32.7284 31.8654 33.1348C32.2717 33.5411 32.5 34.0922 32.5 34.6668V36.8335C32.5 37.4081 32.2717 37.9592 31.8654 38.3656C31.459 38.7719 30.9079 39.0002 30.3333 39.0002H28.1666C27.592 39.0002 27.0409 39.2284 26.6346 39.6348C26.2282 40.0411 26 40.5922 26 41.1668V43.3335C26 43.9081 26.2282 44.4592 26.6346 44.8656C27.0409 45.2719 27.592 45.5002 28.1666 45.5002H32.5M39 32.5002V36.8335C39 37.4081 39.2282 37.9592 39.6346 38.3656C40.0409 38.7719 40.592 39.0002 41.1666 39.0002H43.3333M45.5 32.5002V45.5002" stroke="white" stroke-width="3" stroke-linecap="round" stroke-linejoin="round"/>
</svg>
