<svg width="53" height="53" viewBox="0 0 53 53" fill="none" xmlns="http://www.w3.org/2000/svg">
<path d="M26.4956 4.4165C19.8529 4.4165 15.5466 8.87513 10.4542 10.5005C8.38281 11.163 7.3471 11.492 6.92752 11.958C6.50793 12.4217 6.38648 13.1041 6.14135 14.4644C3.51343 29.0306 9.2551 42.497 22.9468 47.7396C24.4153 48.3027 25.1507 48.5832 26.5022 48.5832C27.8537 48.5832 28.5913 48.3005 30.062 47.7374C43.7515 42.497 49.4865 29.0306 46.8586 14.4644C46.6135 13.1041 46.4898 12.4217 46.0702 11.9558C45.6506 11.4898 44.6171 11.1608 42.5457 10.5005C37.4511 8.87513 33.1382 4.4165 26.4956 4.4165Z" stroke="white" stroke-width="3" stroke-linecap="round" stroke-linejoin="round"/>
<path d="M22.6354 21.9928C22.6354 21.8603 22.6531 21.0962 22.6575 20.1378C22.6575 19.2589 22.5824 18.4153 23.002 17.6424C24.5699 14.5198 29.0749 14.8378 30.1879 18.0178C30.38 18.5412 30.3933 19.3693 30.3866 20.1378C30.38 21.1161 30.3999 21.9928 30.3999 21.9928M22.8275 22.9225C20.4425 22.9225 19.25 24.645 18.985 25.705C18.72 26.765 18.72 30.6075 18.879 32.1975C19.409 34.185 20.734 35.0065 22.0325 35.2715C23.225 35.3775 28.26 35.3377 29.7175 35.3377C31.8375 35.3775 33.4275 34.5825 34.09 32.1975C34.2225 31.4025 34.355 27.03 34.0238 25.705C33.3215 23.585 31.5725 22.9225 30.2475 22.9225H22.8275Z" stroke="white" stroke-width="3" stroke-linecap="round" stroke-linejoin="round"/>
</svg>
