<svg width="53" height="53" viewBox="0 0 53 53" fill="none" xmlns="http://www.w3.org/2000/svg">
<path d="M24.2916 4.4165C15.3368 4.43196 10.6485 4.6528 7.64963 7.6495C4.41663 10.8825 4.41663 16.0875 4.41663 26.4976C4.41663 36.9077 4.41663 42.1128 7.64963 45.348C10.887 48.581 16.0899 48.581 26.5 48.581C36.91 48.581 42.1151 48.581 45.3481 45.348C48.347 42.3513 48.5656 37.663 48.5811 28.706" stroke="white" stroke-width="3" stroke-linecap="round"/>
<path d="M28.7083 24.2915L48.5833 4.4165M48.5833 4.4165H36.782M48.5833 4.4165V16.2178M46.375 6.62484L26.5 26.4998M26.5 26.4998H35.3333M26.5 26.4998V17.6665" stroke="white" stroke-width="3" stroke-linecap="round" stroke-linejoin="round"/>
</svg>
