<svg width="33" height="33" viewBox="0 0 33 33" fill="none" xmlns="http://www.w3.org/2000/svg">
<path fill-rule="evenodd" clip-rule="evenodd" d="M27.1934 6.0912C27.5332 5.94819 27.9051 5.89887 28.2704 5.94836C28.6357 5.99786 28.9811 6.14437 29.2706 6.37264C29.5601 6.60092 29.7831 6.90261 29.9164 7.24632C30.0497 7.59002 30.0885 7.96318 30.0286 8.32695L26.9101 27.2428C26.6076 29.0675 24.6056 30.1138 22.9323 29.205C21.5325 28.4446 19.4535 27.2731 17.5835 26.0507C16.6485 25.4388 13.7844 23.4795 14.1364 22.0852C14.4389 20.8931 19.2514 16.4133 22.0014 13.75C23.0808 12.7036 22.5885 12.1 21.3139 13.0625C18.1486 15.4522 13.0666 19.0863 11.3864 20.1093C9.90414 21.0113 9.13139 21.1653 8.20739 21.0113C6.52164 20.7308 4.95826 20.2963 3.68226 19.767C1.95801 19.052 2.04189 16.6815 3.68089 15.9912L27.1934 6.0912Z" fill="#888888"/>
</svg>
