<svg width="33" height="33" viewBox="0 0 33 33" fill="none" xmlns="http://www.w3.org/2000/svg">
<path fill-rule="evenodd" clip-rule="evenodd" d="M22.9295 3.61393C18.6035 2.64692 14.1173 2.64692 9.79133 3.61393L9.32521 3.71705C8.10803 3.98839 6.99003 4.59221 6.0957 5.4613C5.20136 6.33039 4.56578 7.43064 4.25971 8.63955C3.16506 12.9608 3.16506 17.4867 4.25971 21.8079C4.55163 22.9608 5.14352 24.016 5.97526 24.866C6.807 25.7161 7.84894 26.3309 8.99521 26.6479L9.63458 30.4649C9.65499 30.5861 9.70753 30.6997 9.78671 30.7937C9.86589 30.8877 9.96882 30.9587 10.0848 30.9994C10.2008 31.0402 10.3255 31.049 10.4461 31.0252C10.5667 31.0013 10.6786 30.9455 10.7703 30.8637L14.5255 27.5046C17.3443 27.6747 20.1731 27.4493 22.9295 26.8349L23.397 26.7318C24.6141 26.4605 25.7321 25.8566 26.6265 24.9876C27.5208 24.1185 28.1564 23.0182 28.4625 21.8093C29.5571 17.4881 29.5571 12.9621 28.4625 8.64093C28.1563 7.43184 27.5205 6.33147 26.6259 5.46236C25.7313 4.59326 24.613 3.98953 23.3956 3.71843L22.9295 3.61393ZM10.9518 8.52818C10.6963 8.49076 10.4356 8.54221 10.2135 8.67393H10.1942C9.67859 8.97643 9.21384 9.3573 8.81783 9.80555C8.48783 10.1864 8.30908 10.5714 8.26233 10.9427C8.23483 11.1627 8.25409 11.3854 8.31871 11.5958L8.34346 11.6096C8.71471 12.6999 9.19871 13.7491 9.78996 14.7363C10.5527 16.1228 11.4908 17.4052 12.5812 18.5519L12.6142 18.5987L12.6665 18.6372L12.6981 18.6743L12.7366 18.7073C13.8874 19.8009 15.1729 20.7435 16.5618 21.5123C18.15 22.3772 19.1138 22.7856 19.6927 22.9561V22.9643C19.8618 23.0166 20.0158 23.0399 20.1712 23.0399C20.6645 23.0045 21.1314 22.804 21.4967 22.4707C21.9436 22.0747 22.3217 21.6086 22.616 21.0902V21.0806C22.8923 20.5581 22.7988 20.0658 22.4001 19.7317C21.5998 19.031 20.7337 18.4094 19.8137 17.8754C19.1977 17.5413 18.5721 17.7434 18.3191 18.0817L17.7787 18.7637C17.501 19.1019 16.9977 19.0552 16.9977 19.0552L16.984 19.0634C13.2288 18.1051 12.2265 14.3032 12.2265 14.3032C12.2265 14.3032 12.1797 13.7862 12.5276 13.5222L13.2041 12.9777C13.5286 12.7137 13.7541 12.0894 13.4062 11.4734C12.8735 10.5541 12.2532 9.68845 11.5541 8.88843C11.4011 8.70057 11.187 8.57255 10.9491 8.5268M17.2961 6.87543C17.1137 6.87543 16.9389 6.94786 16.8099 7.07679C16.681 7.20572 16.6086 7.38059 16.6086 7.56293C16.6086 7.74527 16.681 7.92013 16.8099 8.04906C16.9389 8.178 17.1137 8.25043 17.2961 8.25043C19.0355 8.25043 20.4792 8.8183 21.6218 9.9073C22.209 10.5027 22.6668 11.2081 22.9666 11.9808C23.2677 12.7549 23.4052 13.5813 23.3695 14.4091C23.3657 14.4993 23.3797 14.5895 23.4107 14.6743C23.4418 14.7592 23.4892 14.8371 23.5504 14.9036C23.6739 15.038 23.8457 15.1178 24.0281 15.1254C24.2104 15.1331 24.3883 15.068 24.5227 14.9445C24.657 14.821 24.7368 14.6491 24.7445 14.4668C24.7855 13.4487 24.6165 12.433 24.2481 11.4831C23.878 10.5282 23.3143 9.6603 22.5926 8.9338L22.5788 8.92005C21.1612 7.56568 19.3668 6.87543 17.2961 6.87543ZM17.2493 9.13593C17.067 9.13593 16.8921 9.20836 16.7632 9.33729C16.6343 9.46622 16.5618 9.64109 16.5618 9.82343C16.5618 10.0058 16.6343 10.1806 16.7632 10.3096C16.8921 10.4385 17.067 10.5109 17.2493 10.5109H17.2727C18.5267 10.6003 19.4397 11.0183 20.0791 11.7044C20.735 12.4112 21.0746 13.2898 21.0485 14.3761C21.0443 14.5584 21.1127 14.7349 21.2386 14.8668C21.3646 14.9987 21.5378 15.0752 21.7201 15.0794C21.9025 15.0836 22.079 15.0151 22.2109 14.8892C22.3428 14.7632 22.4193 14.59 22.4235 14.4077C22.4565 12.9818 21.9972 11.7512 21.087 10.7694V10.7667C20.1561 9.76843 18.8787 9.24043 17.3415 9.1373L17.3181 9.13455L17.2493 9.13593ZM17.2232 11.4391C17.1312 11.4309 17.0385 11.4414 16.9506 11.4699C16.8628 11.4984 16.7816 11.5443 16.7119 11.6049C16.6421 11.6655 16.5853 11.7395 16.5448 11.8225C16.5044 11.9056 16.481 11.9959 16.4762 12.0881C16.4714 12.1804 16.4852 12.2726 16.5169 12.3594C16.5485 12.4462 16.5973 12.5257 16.6604 12.5932C16.7234 12.6607 16.7994 12.7148 16.8838 12.7523C16.9683 12.7897 17.0594 12.8098 17.1517 12.8113C17.7265 12.8416 18.0936 13.0148 18.3246 13.2472C18.557 13.4809 18.7302 13.8563 18.7618 14.4434C18.7636 14.5357 18.7838 14.6267 18.8214 14.7109C18.8591 14.7952 18.9133 14.871 18.9808 14.9339C19.0484 14.9968 19.1279 15.0454 19.2146 15.0769C19.3013 15.1084 19.3935 15.1221 19.4857 15.1172C19.5778 15.1123 19.668 15.0889 19.751 15.0484C19.8339 15.0079 19.9078 14.9511 19.9683 14.8814C20.0288 14.8118 20.0747 14.7306 20.1031 14.6429C20.1316 14.5551 20.1422 14.4625 20.1341 14.3706C20.0901 13.5456 19.8316 12.8168 19.3022 12.2806C18.7701 11.7443 18.0455 11.4831 17.2232 11.4391Z" fill="#888888"/>
</svg>
