<svg width="33" height="33" viewBox="0 0 33 33" fill="none" xmlns="http://www.w3.org/2000/svg">
<path d="M17.9135 2.75C19.4604 2.75412 20.2455 2.76238 20.9234 2.78163L21.1902 2.79125C21.4982 2.80225 21.802 2.816 22.1692 2.8325C23.6322 2.90125 24.6304 3.13225 25.5063 3.47188C26.4138 3.82113 27.1783 4.29412 27.9428 5.05725C28.6423 5.74438 29.1833 6.5759 29.5282 7.49375C29.8678 8.36962 30.0988 9.36787 30.1675 10.8322C30.184 11.198 30.1978 11.5019 30.2088 11.8113L30.217 12.078C30.2377 12.7545 30.2459 13.5396 30.2487 15.0865L30.25 16.1123V17.9135C30.2534 18.9164 30.2429 19.9194 30.2184 20.922L30.2102 21.1887C30.1992 21.4981 30.1854 21.802 30.1689 22.1677C30.1002 23.6321 29.8664 24.629 29.5282 25.5062C29.1833 26.4241 28.6423 27.2556 27.9428 27.9428C27.2557 28.6422 26.4241 29.1833 25.5063 29.5281C24.6304 29.8678 23.6322 30.0988 22.1692 30.1675L21.1902 30.2087L20.9234 30.217C20.2455 30.2362 19.4604 30.2459 17.9135 30.2486L16.8878 30.25H15.0879C14.0845 30.2535 13.0811 30.243 12.0781 30.2184L11.8113 30.2101C11.4849 30.1978 11.1586 30.1836 10.8323 30.1675C9.3693 30.0988 8.37105 29.8678 7.4938 29.5281C6.57644 29.1831 5.74541 28.642 5.05867 27.9428C4.35872 27.2558 3.8172 26.4242 3.47192 25.5062C3.1323 24.6304 2.9013 23.6321 2.83255 22.1677L2.7913 21.1887L2.78442 20.922C2.75908 19.9194 2.74762 18.9164 2.75005 17.9135V15.0865C2.74624 14.0836 2.75633 13.0806 2.7803 12.078L2.78992 11.8113C2.80092 11.5019 2.81467 11.198 2.83117 10.8322C2.89992 9.36787 3.13092 8.371 3.47055 7.49375C3.81663 6.57552 4.35911 5.74397 5.06005 5.05725C5.74639 4.35813 6.57693 3.8171 7.4938 3.47188C8.37105 3.13225 9.36792 2.90125 10.8323 2.8325C11.198 2.816 11.5033 2.80225 11.8113 2.79125L12.0781 2.783C13.0807 2.75857 14.0836 2.74803 15.0865 2.75137L17.9135 2.75ZM16.5 9.625C14.6767 9.625 12.928 10.3493 11.6387 11.6386C10.3494 12.928 9.62505 14.6766 9.62505 16.5C9.62505 18.3234 10.3494 20.072 11.6387 21.3614C12.928 22.6507 14.6767 23.375 16.5 23.375C18.3234 23.375 20.0721 22.6507 21.3614 21.3614C22.6507 20.072 23.375 18.3234 23.375 16.5C23.375 14.6766 22.6507 12.928 21.3614 11.6386C20.0721 10.3493 18.3234 9.625 16.5 9.625ZM16.5 12.375C17.0418 12.3749 17.5782 12.4815 18.0787 12.6887C18.5792 12.896 19.034 13.1997 19.4171 13.5827C19.8002 13.9657 20.1041 14.4204 20.3115 14.9208C20.5189 15.4212 20.6256 15.9576 20.6257 16.4993C20.6258 17.041 20.5192 17.5774 20.312 18.0779C20.1048 18.5784 19.801 19.0332 19.418 19.4163C19.0351 19.7994 18.5804 20.1034 18.0799 20.3107C17.5795 20.5181 17.0431 20.6249 16.5014 20.625C15.4074 20.625 14.3582 20.1904 13.5846 19.4168C12.811 18.6432 12.3764 17.594 12.3764 16.5C12.3764 15.406 12.811 14.3568 13.5846 13.5832C14.3582 12.8096 15.4074 12.375 16.5014 12.375M23.7202 7.5625C23.2643 7.5625 22.8272 7.74358 22.5048 8.06591C22.1825 8.38824 22.0014 8.82541 22.0014 9.28125C22.0014 9.73709 22.1825 10.1743 22.5048 10.4966C22.8272 10.8189 23.2643 11 23.7202 11C24.176 11 24.6132 10.8189 24.9355 10.4966C25.2578 10.1743 25.4389 9.73709 25.4389 9.28125C25.4389 8.82541 25.2578 8.38824 24.9355 8.06591C24.6132 7.74358 24.176 7.5625 23.7202 7.5625Z" fill="#888888"/>
</svg>
