<svg width="30" height="30" viewBox="0 0 30 30" fill="none" xmlns="http://www.w3.org/2000/svg">
<g clip-path="url(#clip0_85_625)">
<path d="M10.4508 0.986424C7.45335 2.02627 4.86834 3.99994 3.07548 6.61752C1.28262 9.23511 0.376419 12.3586 0.489976 15.5293C0.603533 18.7 1.73087 21.7507 3.70638 24.2333C5.6819 26.7159 8.40148 28.4996 11.4657 29.3224C13.9499 29.9634 16.5526 29.9915 19.05 29.4044C21.3125 28.8962 23.4042 27.8092 25.1203 26.2497C26.9065 24.5771 28.2029 22.4493 28.8703 20.095C29.5958 17.5349 29.7249 14.8425 29.2477 12.2247H15.2977V18.0114H23.3766C23.2151 18.9344 22.8691 19.8152 22.3593 20.6013C21.8495 21.3874 21.1863 22.0626 20.4094 22.5864C19.4229 23.239 18.3108 23.6781 17.1446 23.8755C15.9749 24.093 14.7752 24.093 13.6055 23.8755C12.42 23.6304 11.2985 23.1411 10.3125 22.4388C8.72851 21.3175 7.53912 19.7245 6.9141 17.8872C6.2785 16.0155 6.2785 13.9863 6.9141 12.1145C7.359 10.8026 8.09449 9.60799 9.06566 8.62002C10.177 7.46864 11.5841 6.64564 13.1324 6.24129C14.6808 5.83695 16.3106 5.86689 17.843 6.32783C19.0401 6.69531 20.1348 7.33737 21.0399 8.20283C21.9508 7.29658 22.8602 6.38799 23.768 5.47705C24.2368 4.98721 24.7477 4.5208 25.2094 4.01924C23.8279 2.73363 22.2063 1.73328 20.4375 1.07549C17.2165 -0.0940682 13.6922 -0.125499 10.4508 0.986424Z" fill="#888888"/>
</g>
<defs>
<clipPath id="clip0_85_625">
<rect width="30" height="30" fill="white"/>
</clipPath>
</defs>
</svg>
