<svg width="33" height="33" viewBox="0 0 33 33" fill="none" xmlns="http://www.w3.org/2000/svg">
<path d="M22 11.3369V21.3125C21.9996 23.1688 21.4212 24.9789 20.3451 26.4915C19.269 28.0041 17.7486 29.1441 15.9951 29.7532C14.2416 30.3623 12.3419 30.4103 10.5598 29.8905C8.77779 29.3707 7.20181 28.3089 6.05074 26.8525C4.89966 25.3962 4.23062 23.6176 4.1365 21.7637C4.04238 19.9097 4.52786 18.0725 5.52553 16.5071C6.52319 14.9417 7.98354 13.7257 9.70378 13.0281C11.424 12.3305 13.3188 12.1859 15.125 12.6143V16.9634C14.1829 16.5165 13.1211 16.3877 12.0994 16.5964C11.0778 16.805 10.1516 17.3399 9.46014 18.1204C8.76871 18.9009 8.34951 19.8849 8.26561 20.9243C8.18171 21.9637 8.43766 23.0021 8.99493 23.8835C9.55221 24.7648 10.3807 25.4413 11.3556 25.8111C12.3306 26.181 13.3993 26.2241 14.4009 25.9342C15.4025 25.6442 16.2828 25.0367 16.9093 24.2032C17.5359 23.3697 17.8748 22.3552 17.875 21.3125V2.75H22C22 4.57336 22.7243 6.32205 24.0136 7.61136C25.303 8.90067 27.0516 9.625 28.875 9.625V13.75C26.3752 13.7533 23.9494 12.9018 22 11.3369Z" fill="#888888"/>
</svg>
