<svg width="30" height="26" viewBox="0 0 30 26" fill="none" xmlns="http://www.w3.org/2000/svg">
<path d="M27.9122 6.30109C27.5932 5.10011 26.6534 4.15426 25.4602 3.83327C23.2975 3.25 14.625 3.25 14.625 3.25C14.625 3.25 5.95256 3.25 3.78974 3.83327C2.59653 4.15431 1.65677 5.10011 1.33782 6.30109C0.758301 8.47793 0.758301 13.0197 0.758301 13.0197C0.758301 13.0197 0.758301 17.5615 1.33782 19.7383C1.65677 20.9393 2.59653 21.8457 3.78974 22.1667C5.95256 22.75 14.625 22.75 14.625 22.75C14.625 22.75 23.2974 22.75 25.4602 22.1667C26.6534 21.8457 27.5932 20.9393 27.9122 19.7383C28.4917 17.5615 28.4917 13.0197 28.4917 13.0197C28.4917 13.0197 28.4917 8.47793 27.9122 6.30109ZM11.7886 17.1433V8.89611L19.0371 13.0198L11.7886 17.1433Z" fill="#888888"/>
</svg>
