<svg width="60" height="60" viewBox="0 0 60 60" fill="none" xmlns="http://www.w3.org/2000/svg">
<path d="M17.5 52.5H42.5C45.1522 52.5 47.6957 51.4464 49.5711 49.5711C51.4464 47.6957 52.5 45.1522 52.5 42.5V18.535C52.4999 17.872 52.2364 17.2362 51.7675 16.7675L43.2325 8.2325C42.7638 7.76363 42.128 7.50014 41.465 7.5H17.5C14.8478 7.5 12.3043 8.55357 10.4289 10.4289C8.55357 12.3043 7.5 14.8478 7.5 17.5V42.5C7.5 45.1522 8.55357 47.6957 10.4289 49.5711C12.3043 51.4464 14.8478 52.5 17.5 52.5Z" stroke="white" stroke-width="3" stroke-linecap="round" stroke-linejoin="round"/>
<path d="M42.5 52.5V35C42.5 34.337 42.2366 33.7011 41.7678 33.2322C41.2989 32.7634 40.663 32.5 40 32.5H20C19.337 32.5 18.7011 32.7634 18.2322 33.2322C17.7634 33.7011 17.5 34.337 17.5 35V52.5M22.5 7.5H37.5V15C37.5 15.663 37.2366 16.2989 36.7678 16.7678C36.2989 17.2366 35.663 17.5 35 17.5H25C24.337 17.5 23.7011 17.2366 23.2322 16.7678C22.7634 16.2989 22.5 15.663 22.5 15V7.5Z" stroke="white" stroke-width="3"/>
<path d="M27.5 42.5H32.5" stroke="white" stroke-width="3" stroke-linecap="round"/>
</svg>
