<svg width="60" height="60" viewBox="0 0 60 60" fill="none" xmlns="http://www.w3.org/2000/svg">
<path d="M38.75 30C38.75 31.1491 38.5237 32.2869 38.0839 33.3485C37.6442 34.4101 36.9997 35.3747 36.1872 36.1872C35.3747 36.9997 34.4101 37.6442 33.3485 38.0839C32.2869 38.5237 31.1491 38.75 30 38.75C28.8509 38.75 27.7131 38.5237 26.6515 38.0839C25.5899 37.6442 24.6253 36.9997 23.8128 36.1872C23.0003 35.3747 22.3558 34.4101 21.9161 33.3485C21.4763 32.2869 21.25 31.1491 21.25 30C21.25 27.6794 22.1719 25.4538 23.8128 23.8128C25.4538 22.1719 27.6794 21.25 30 21.25C32.3206 21.25 34.5462 22.1719 36.1872 23.8128C37.8281 25.4538 38.75 27.6794 38.75 30Z" stroke="white" stroke-width="3" stroke-linecap="round" stroke-linejoin="round"/>
<path d="M52.5275 35.2426C53.8325 34.8901 54.485 34.7126 54.7425 34.3776C55 34.0401 55 33.5001 55 32.4176V27.5826C55 26.5001 55 25.9576 54.7425 25.6226C54.485 25.2876 53.8325 25.1101 52.5275 24.7601C47.6525 23.4451 44.6 18.3476 45.8575 13.5026C46.205 12.1701 46.3775 11.5026 46.2125 11.1126C46.0475 10.7226 45.5725 10.4526 44.625 9.91508L40.3125 7.46508C39.3825 6.94008 38.9175 6.67508 38.5 6.73008C38.0825 6.78508 37.61 7.25508 36.6675 8.19758C33.02 11.8351 26.985 11.8351 23.335 8.19758C22.3925 7.25758 21.9225 6.78758 21.505 6.73008C21.0875 6.67508 20.6225 6.93758 19.6925 7.46758L15.38 9.91508C14.43 10.4526 13.955 10.7226 13.7925 11.1151C13.6275 11.5026 13.8 12.1701 14.145 13.5026C15.4025 18.3476 12.35 23.4451 7.4725 24.7601C6.1675 25.1101 5.515 25.2851 5.2575 25.6226C5 25.9601 5 26.5001 5 27.5826V32.4176C5 33.5001 5 34.0426 5.2575 34.3776C5.515 34.7126 6.1675 34.8901 7.4725 35.2426C12.3475 36.5576 15.4 41.6551 14.1425 46.4976C13.795 47.8301 13.6225 48.4976 13.7875 48.8876C13.9525 49.2776 14.4275 49.5476 15.375 50.0876L19.6875 52.5326C20.6175 53.0626 21.0825 53.3251 21.5 53.2701C21.9175 53.2151 22.39 52.7451 23.3325 51.8026C26.9825 48.1601 33.0225 48.1601 36.6725 51.8026C37.615 52.7426 38.085 53.2126 38.5025 53.2701C38.92 53.3251 39.385 53.0626 40.3175 52.5326L44.6275 50.0851C45.5775 49.5476 46.0525 49.2776 46.215 48.8851C46.3775 48.4926 46.2075 47.8301 45.8625 46.4976C44.6025 41.6551 47.6525 36.5576 52.5275 35.2426Z" stroke="white" stroke-width="3" stroke-linecap="round" stroke-linejoin="round"/>
</svg>
