<svg width="60" height="60" viewBox="0 0 60 60" fill="none" xmlns="http://www.w3.org/2000/svg">
<path d="M16.875 49.2123C20.6151 52.1581 25.2392 53.7567 30 53.7498C34.9538 53.7498 39.5125 52.0548 43.125 49.2123M23.75 12.1836C15.0638 14.8523 8.75 22.9386 8.75 32.4998C8.75 34.9061 9.15 37.2186 9.8875 39.3748M36.25 12.1836C44.9362 14.8523 51.25 22.9386 51.25 32.4998C51.25 34.9061 50.85 37.2186 50.1125 39.3748" stroke="white" stroke-width="3"/>
<path d="M53.75 45C53.75 46.6775 53.09 48.2 52.015 49.3225C51.0111 50.3712 49.6734 51.0378 48.2316 51.2078C46.7898 51.3777 45.3338 51.0404 44.1135 50.2538C42.8933 49.4672 41.985 48.2803 41.5446 46.8969C41.1041 45.5135 41.159 44.0199 41.6998 42.6726C42.2406 41.3253 43.2336 40.2083 44.5082 39.5133C45.7829 38.8184 47.2598 38.5888 48.6852 38.8642C50.1107 39.1395 51.3958 39.9024 52.32 41.0221C53.2442 42.1417 53.7498 43.5482 53.75 45ZM18.75 45C18.75 46.6775 18.09 48.2 17.015 49.3225C16.0111 50.3712 14.6734 51.0378 13.2316 51.2078C11.7898 51.3777 10.3338 51.0404 9.11355 50.2538C7.89333 49.4672 6.98502 48.2803 6.54457 46.8969C6.10412 45.5135 6.159 44.0199 6.6998 42.6726C7.2406 41.3253 8.23357 40.2083 9.50824 39.5133C10.7829 38.8184 12.2597 38.5888 13.6852 38.8642C15.1107 39.1395 16.3958 39.9024 17.32 41.0221C18.2442 42.1417 18.7498 43.5482 18.75 45ZM36.25 11.25C36.25 12.9275 35.59 14.45 34.515 15.5725C33.5111 16.6212 32.1734 17.2878 30.7316 17.4578C29.2898 17.6277 27.8338 17.2904 26.6135 16.5038C25.3933 15.7171 24.485 14.5303 24.0446 13.1469C23.6041 11.7635 23.659 10.2699 24.1998 8.92261C24.7406 7.57529 25.7336 6.45827 27.0082 5.76331C28.2829 5.06836 29.7597 4.83884 31.1852 5.11415C32.6107 5.38946 33.8958 6.15243 34.82 7.27207C35.7442 8.39171 36.2498 9.79816 36.25 11.25Z" stroke="white" stroke-width="3" stroke-linecap="round" stroke-linejoin="round"/>
</svg>
