<svg width="220" height="41" viewBox="0 0 220 41" fill="none" xmlns="http://www.w3.org/2000/svg">
<g clip-path="url(#clip0_85_572)">
<path d="M74.9019 41H69.019L85.7145 2.1582H91.15L107.843 41H101.848L88.3483 9.12565L74.9019 41Z" fill="#F8C428"/>
<path d="M69.019 20.444C69.019 23.4575 68.505 26.2205 67.4797 28.7384C66.4543 31.2562 65.0242 33.4224 63.1946 35.2422C61.3623 37.0593 59.1945 38.4741 56.6858 39.4839C54.1771 40.4938 51.458 41 48.5285 41C45.599 41 42.8799 40.4938 40.3712 39.4839C37.8624 38.4741 35.6919 37.0593 33.8623 35.2422C32.0301 33.4224 30.6026 31.2562 29.5773 28.7384C28.552 26.2232 28.038 23.4575 28.038 20.444C28.038 17.4306 28.552 14.6756 29.5773 12.179C30.6026 9.67982 32.0301 7.5323 33.8623 5.73115C35.6946 3.93001 37.8624 2.52586 40.3712 1.51605C42.8799 0.506239 45.599 0 48.5285 0C51.458 0 54.1771 0.503574 56.6858 1.51605C59.1945 2.52586 61.365 3.93001 63.1946 5.73115C65.0242 7.5323 66.4543 9.67982 67.4797 12.179C68.505 14.6783 69.019 17.4333 69.019 20.444ZM63.3597 20.444C63.3597 18.3125 63.0108 16.3009 62.3158 14.4092C61.6207 12.5174 60.6326 10.8548 59.349 9.42137C58.068 7.98791 56.51 6.85021 54.6804 6.00292C52.8482 5.15831 50.7975 4.73466 48.5285 4.73466C46.2594 4.73466 44.2061 5.15831 42.3765 6.00292C40.5469 6.84754 38.989 7.98791 37.708 9.42137C36.427 10.8548 35.4363 12.5174 34.7412 14.4092C34.0461 16.3009 33.6972 18.3125 33.6972 20.444C33.6972 22.5756 34.0461 24.6512 34.7412 26.5615C35.4363 28.4719 36.427 30.1425 37.708 31.576C38.989 33.0094 40.5469 34.1391 42.3765 34.9651C44.2088 35.7911 46.2594 36.2041 48.5285 36.2041C50.7975 36.2041 52.8508 35.7911 54.6804 34.9651C56.5127 34.1391 58.068 33.0094 59.349 31.576C60.63 30.1425 61.618 28.4719 62.3158 26.5615C63.0135 24.6512 63.3597 22.6129 63.3597 20.444Z" fill="#E62B39"/>
<path d="M146.667 20.444C146.667 23.4575 146.153 26.2205 145.13 28.7384C144.105 31.2562 142.675 33.4224 140.845 35.2422C139.013 37.0593 136.845 38.4741 134.336 39.4839C131.827 40.4938 129.108 41 126.179 41C123.249 41 120.53 40.4938 118.021 39.4839C115.513 38.4741 113.342 37.0593 111.513 35.2422C109.683 33.4224 108.253 31.2562 107.228 28.7384C106.202 26.2232 105.688 23.4575 105.688 20.444C105.688 17.4306 106.202 14.6756 107.228 12.179C108.253 9.67982 109.683 7.5323 111.513 5.73115C113.345 3.93001 115.513 2.52586 118.021 1.51605C120.53 0.506239 123.249 0 126.179 0C129.108 0 131.827 0.503574 134.336 1.51605C136.845 2.52586 139.015 3.93001 140.845 5.73115C142.675 7.5323 144.105 9.67982 145.13 12.179C146.155 14.6783 146.667 17.4333 146.667 20.444ZM141.007 20.444C141.007 18.3125 140.659 16.3009 139.963 14.4092C139.268 12.5174 138.28 10.8548 136.997 9.42137C135.716 7.98791 134.158 6.85021 132.328 6.00292C130.496 5.15831 128.445 4.73466 126.176 4.73466C123.907 4.73466 121.854 5.15831 120.024 6.00292C118.195 6.84754 116.637 7.98791 115.356 9.42137C114.075 10.8548 113.084 12.5174 112.389 14.4092C111.694 16.3009 111.345 18.3125 111.345 20.444C111.345 22.5756 111.691 24.6512 112.389 26.5615C113.084 28.4719 114.075 30.1425 115.356 31.576C116.637 33.0094 118.195 34.1391 120.024 34.9651C121.856 35.7911 123.907 36.2041 126.176 36.2041C128.445 36.2041 130.498 35.7911 132.328 34.9651C134.16 34.1391 135.716 33.0094 136.997 31.576C138.278 30.1425 139.266 28.4719 139.963 26.5615C140.661 24.6512 141.007 22.6129 141.007 20.444Z" fill="#39B2E5"/>
<path d="M194.119 41V2.1582H215.659V6.87688H199.382V18.3419H206.546C208.535 18.3419 210.351 18.579 211.997 19.0559C213.643 19.5302 215.063 20.2442 216.258 21.1954C217.451 22.1466 218.375 23.3163 219.025 24.7071C219.678 26.098 220.003 27.7259 220.003 29.591C220.003 31.4561 219.659 33.1027 218.972 34.5282C218.285 35.9536 217.334 37.1526 216.122 38.1225C214.911 39.0923 213.473 39.8144 211.808 40.2886C210.144 40.7656 208.335 41.0027 206.383 41.0027H194.119V41ZM206.056 36.2813C208.769 36.2813 210.913 35.6978 212.485 34.5255C214.058 33.3558 214.844 31.7092 214.844 29.5883C214.844 27.3582 214.04 25.7116 212.429 24.6512C210.82 23.5907 208.711 23.0605 206.106 23.0605H199.376V36.2813H206.05H206.056Z" fill="#E62B39"/>
<path d="M159.607 36.6516C159.607 37.7947 159.2 38.8045 158.385 39.6811C157.57 40.5603 156.539 41 155.293 41C154.046 41 153.072 40.571 152.235 39.7157C151.399 38.8604 150.981 37.8613 150.981 36.7183C150.981 35.5752 151.388 34.5121 152.203 33.6542C153.018 32.7989 154.049 32.3699 155.293 32.3699C156.536 32.3699 157.567 32.7882 158.385 33.6222C159.2 34.4562 159.607 35.466 159.607 36.6543" fill="#46B276"/>
<path d="M177.354 41H172.057V6.82093H159.607V2.1582H189.805V6.82093H177.354V41Z" fill="#46B276"/>
<path d="M0 2.1582H4.80438V20.7025L20.2135 2.1582H25.6837L10.4397 20.3775L28.038 41H22.0218L4.80438 20.7025V41H0" fill="#39B2E5"/>
<path d="M74.9019 41H69.019L85.7145 2.1582H91.15L107.843 41H101.848L88.3483 9.12565L74.9019 41Z" fill="#F8C428"/>
<path d="M69.019 20.444C69.019 23.4575 68.505 26.2205 67.4797 28.7384C66.4543 31.2562 65.0242 33.4224 63.1946 35.2422C61.3623 37.0593 59.1945 38.4741 56.6858 39.4839C54.1771 40.4938 51.458 41 48.5285 41C45.599 41 42.8799 40.4938 40.3712 39.4839C37.8624 38.4741 35.6919 37.0593 33.8623 35.2422C32.0301 33.4224 30.6026 31.2562 29.5773 28.7384C28.552 26.2232 28.038 23.4575 28.038 20.444C28.038 17.4306 28.552 14.6756 29.5773 12.179C30.6026 9.67982 32.0301 7.5323 33.8623 5.73115C35.6946 3.93001 37.8624 2.52586 40.3712 1.51605C42.8799 0.506239 45.599 0 48.5285 0C51.458 0 54.1771 0.503574 56.6858 1.51605C59.1945 2.52586 61.365 3.93001 63.1946 5.73115C65.0242 7.5323 66.4543 9.67982 67.4797 12.179C68.505 14.6783 69.019 17.4333 69.019 20.444ZM63.3597 20.444C63.3597 18.3125 63.0108 16.3009 62.3158 14.4092C61.6207 12.5174 60.6326 10.8548 59.349 9.42137C58.068 7.98791 56.51 6.85021 54.6804 6.00292C52.8482 5.15831 50.7975 4.73466 48.5285 4.73466C46.2594 4.73466 44.2061 5.15831 42.3765 6.00292C40.5469 6.84754 38.989 7.98791 37.708 9.42137C36.427 10.8548 35.4363 12.5174 34.7412 14.4092C34.0461 16.3009 33.6972 18.3125 33.6972 20.444C33.6972 22.5756 34.0461 24.6512 34.7412 26.5615C35.4363 28.4719 36.427 30.1425 37.708 31.576C38.989 33.0094 40.5469 34.1391 42.3765 34.9651C44.2088 35.7911 46.2594 36.2041 48.5285 36.2041C50.7975 36.2041 52.8508 35.7911 54.6804 34.9651C56.5127 34.1391 58.068 33.0094 59.349 31.576C60.63 30.1425 61.618 28.4719 62.3158 26.5615C63.0135 24.6512 63.3597 22.6129 63.3597 20.444Z" fill="#E62B39"/>
<path d="M146.667 20.444C146.667 23.4575 146.153 26.2205 145.13 28.7384C144.105 31.2562 142.675 33.4224 140.845 35.2422C139.013 37.0593 136.845 38.4741 134.336 39.4839C131.827 40.4938 129.108 41 126.179 41C123.249 41 120.53 40.4938 118.021 39.4839C115.513 38.4741 113.342 37.0593 111.513 35.2422C109.683 33.4224 108.253 31.2562 107.228 28.7384C106.202 26.2232 105.688 23.4575 105.688 20.444C105.688 17.4306 106.202 14.6756 107.228 12.179C108.253 9.67982 109.683 7.5323 111.513 5.73115C113.345 3.93001 115.513 2.52586 118.021 1.51605C120.53 0.506239 123.249 0 126.179 0C129.108 0 131.827 0.503574 134.336 1.51605C136.845 2.52586 139.015 3.93001 140.845 5.73115C142.675 7.5323 144.105 9.67982 145.13 12.179C146.155 14.6783 146.667 17.4333 146.667 20.444ZM141.007 20.444C141.007 18.3125 140.659 16.3009 139.963 14.4092C139.268 12.5174 138.28 10.8548 136.997 9.42137C135.716 7.98791 134.158 6.85021 132.328 6.00292C130.496 5.15831 128.445 4.73466 126.176 4.73466C123.907 4.73466 121.854 5.15831 120.024 6.00292C118.195 6.84754 116.637 7.98791 115.356 9.42137C114.075 10.8548 113.084 12.5174 112.389 14.4092C111.694 16.3009 111.345 18.3125 111.345 20.444C111.345 22.5756 111.691 24.6512 112.389 26.5615C113.084 28.4719 114.075 30.1425 115.356 31.576C116.637 33.0094 118.195 34.1391 120.024 34.9651C121.856 35.7911 123.907 36.2041 126.176 36.2041C128.445 36.2041 130.498 35.7911 132.328 34.9651C134.16 34.1391 135.716 33.0094 136.997 31.576C138.278 30.1425 139.266 28.4719 139.963 26.5615C140.661 24.6512 141.007 22.6129 141.007 20.444Z" fill="#39B2E5"/>
<path d="M194.119 41V2.1582H215.659V6.87688H199.382V18.3419H206.546C208.535 18.3419 210.351 18.579 211.997 19.0559C213.643 19.5302 215.063 20.2442 216.258 21.1954C217.451 22.1466 218.375 23.3163 219.025 24.7071C219.678 26.098 220.003 27.7259 220.003 29.591C220.003 31.4561 219.659 33.1027 218.972 34.5282C218.285 35.9536 217.334 37.1526 216.122 38.1225C214.911 39.0923 213.473 39.8144 211.808 40.2886C210.144 40.7656 208.335 41.0027 206.383 41.0027H194.119V41ZM206.056 36.2813C208.769 36.2813 210.913 35.6978 212.485 34.5255C214.058 33.3558 214.844 31.7092 214.844 29.5883C214.844 27.3582 214.04 25.7116 212.429 24.6512C210.82 23.5907 208.711 23.0605 206.106 23.0605H199.376V36.2813H206.05H206.056Z" fill="#E62B39"/>
<path d="M159.607 36.6516C159.607 37.7947 159.2 38.8045 158.385 39.6811C157.57 40.5603 156.539 41 155.293 41C154.046 41 153.072 40.571 152.235 39.7157C151.399 38.8604 150.981 37.8613 150.981 36.7183C150.981 35.5752 151.388 34.5121 152.203 33.6542C153.018 32.7989 154.049 32.3699 155.293 32.3699C156.536 32.3699 157.567 32.7882 158.385 33.6222C159.2 34.4562 159.607 35.466 159.607 36.6543" fill="#46B276"/>
<path d="M177.354 41H172.057V6.82093H159.607V2.1582H189.805V6.82093H177.354V41Z" fill="#46B276"/>
<path d="M0 2.1582H4.80438V20.7025L20.2135 2.1582H25.6837L10.4397 20.3775L28.038 41H22.0218L4.80438 20.7025V41H0" fill="#39B2E5"/>
</g>
<defs>
<clipPath id="clip0_85_572">
<rect width="220" height="41" fill="white"/>
</clipPath>
</defs>
</svg>
